<svg width="75" height="35" viewBox="0 0 75 35" fill="none" xmlns="http://www.w3.org/2000/svg">
<g clip-path="url(#clip0_1195_19309)">
<path fill-rule="evenodd" clip-rule="evenodd" d="M18.8347 17.3169C18.6816 17.2318 18.5423 17.1387 18.4392 17.0358C18.2911 16.8867 18.1829 16.6886 18.1174 16.4404C18.0511 16.1923 18.0184 15.8778 18.0184 15.4979V0L15.7123 0.397219V15.8705C15.7123 16.1711 15.7302 16.4521 15.7661 16.7138C15.5301 16.7012 15.2852 16.695 15.0314 16.695C13.8981 16.695 12.8318 16.8949 11.8319 17.2949C11.5777 17.3966 11.3314 17.5101 11.0933 17.6356C10.3638 17.8984 9.45495 17.9911 8.37518 17.9911C7.40896 17.9911 6.56363 17.8247 5.83827 17.4912C5.11292 17.1576 4.50936 16.6867 4.0258 16.0786C3.54223 15.4706 3.18046 14.7415 2.93868 13.8917C2.6969 13.0409 2.576 12.1001 2.576 11.0666C2.576 10.0004 2.71326 9.03782 2.98867 8.17976C3.26318 7.3217 3.65949 6.59271 4.17578 5.99279C4.69207 5.39379 5.31652 4.93567 6.05006 4.61845C6.78268 4.30213 7.60803 4.14396 8.52426 4.14396C8.95692 4.14396 9.38687 4.18123 9.81135 4.25668C10.2358 4.33121 10.6276 4.42756 10.9858 4.54391C11.3439 4.66025 11.6648 4.77751 11.9484 4.89385C12.232 5.01112 12.4482 5.11929 12.5982 5.21927L13.2981 3.21955C13.1982 3.15319 13.0145 3.0532 12.7482 2.91959C12.4819 2.78597 12.1364 2.65327 11.7111 2.51965C11.2866 2.38603 10.7867 2.26968 10.2113 2.16969C9.63683 2.0697 8.99056 2.01972 8.27429 2.01972C7.14082 2.01972 6.0746 2.21969 5.07475 2.61964C4.07488 3.01957 3.19955 3.60313 2.44965 4.36939C1.69976 5.13564 1.10439 6.08096 0.662634 7.20626C0.220878 8.33157 0 9.61868 0 11.0684C0 12.5182 0.195427 13.8062 0.58719 14.9307C0.978954 16.055 1.53343 17.0012 2.24968 17.7675C2.96595 18.5338 3.82492 19.1174 4.82477 19.5173C5.82464 19.9172 6.93266 20.1171 8.14886 20.1171C8.21198 20.1171 8.2747 20.1168 8.33701 20.1162C7.98052 20.645 7.67515 21.2334 7.42074 21.8814C6.97898 23.0068 6.75811 24.2939 6.75811 25.7437C6.75811 27.1935 6.95354 28.4806 7.3453 29.6058C7.73706 30.7303 8.29152 31.6765 9.00779 32.4427C9.72496 33.209 10.583 33.7926 11.5829 34.1925C12.5828 34.5924 13.6907 34.7924 14.907 34.7924C15.6069 34.7924 16.2568 34.7506 16.8558 34.6669C17.4566 34.5834 17.9802 34.4834 18.431 34.367C18.8819 34.2507 19.2564 34.1298 19.5563 34.0043C19.8563 33.8789 20.0644 33.7753 20.1817 33.6917L19.5563 31.6919C19.19 31.8755 18.64 32.0837 17.9066 32.3173C17.174 32.5509 16.2486 32.6672 15.1324 32.6672C14.1661 32.6672 13.3199 32.5009 12.5954 32.1673C11.8701 31.8337 11.2656 31.3628 10.783 30.7548C10.2994 30.1467 9.93767 29.4177 9.69588 28.5678C9.45409 27.7171 9.3332 26.7763 9.3332 25.7428C9.3332 24.6765 9.47136 23.7139 9.74587 22.8559C10.0204 21.9979 10.4167 21.2688 10.9329 20.6689C11.4493 20.0699 12.0737 19.6109 12.8073 19.2945C13.5399 18.9783 14.3652 18.8201 15.2815 18.8201C15.7141 18.8201 16.144 18.8573 16.5686 18.9328C16.993 19.0073 17.3848 19.1037 17.7429 19.22C18.101 19.3364 18.4219 19.4537 18.7055 19.57C18.9891 19.6863 19.2055 19.7945 19.3554 19.8945L20.0554 17.8947C19.9553 17.8284 19.7718 17.7284 19.5054 17.5948C19.3202 17.5025 19.0967 17.4098 18.8347 17.3169ZM23.3356 4.33876C23.6273 4.61418 23.9818 4.75143 24.3981 4.75143C24.8144 4.75143 25.168 4.61418 25.4607 4.33876C25.7516 4.06334 25.898 3.69248 25.898 3.22618C25.898 2.75989 25.7525 2.38903 25.4607 2.11361C25.169 1.83819 24.8144 1.70094 24.3981 1.70094C23.9809 1.70094 23.6273 1.83911 23.3356 2.11361C23.0438 2.38903 22.8984 2.75989 22.8984 3.22618C22.8984 3.69339 23.0438 4.06334 23.3356 4.33876ZM25.5384 20.1668L25.5729 7.10133H23.2477L23.2876 19.7395L23.2341 31.3261C23.2341 32.5587 23.5313 33.4668 24.1258 34.0502C24.7203 34.6338 25.7274 34.942 27.1482 34.9756L27.469 33.0259C27.1054 32.9759 26.8 32.9141 26.5528 32.8386C26.3055 32.7641 26.1065 32.6514 25.9583 32.5014C25.8101 32.3514 25.702 32.1515 25.6365 31.9015C25.5702 31.6515 25.5375 31.3352 25.5375 30.9516L25.5384 20.1668ZM29.6599 7.49499C30.1936 7.36228 30.9016 7.22048 31.7851 7.07051C32.6678 6.92053 33.6848 6.84599 34.8347 6.84599C35.8682 6.84599 36.7262 6.99233 37.4097 7.2832C38.0925 7.57498 38.6387 7.9831 39.0468 8.50757C39.455 9.03296 39.7422 9.66199 39.9095 10.3946C40.0758 11.1281 40.1594 11.9362 40.1594 12.8188V20.1177H37.8343V13.3188C37.8343 12.5188 37.7797 11.8353 37.6715 11.269C37.5625 10.7027 37.3843 10.2437 37.1344 9.89463C36.8844 9.54471 36.5508 9.2911 36.1345 9.13204C35.7182 8.97388 35.201 8.8948 34.5847 8.8948C34.3348 8.8948 34.0766 8.90297 33.8094 8.91934C33.5431 8.93661 33.2885 8.9566 33.0468 8.98205C32.805 9.00751 32.5886 9.03659 32.3968 9.06931C32.205 9.10295 32.0678 9.12749 31.9842 9.14476V20.1177H29.6599V7.49499ZM45.3503 4.76951C44.934 4.76951 44.5795 4.63226 44.2877 4.35684C43.9959 4.08234 43.8505 3.71148 43.8505 3.24428C43.8505 2.77798 43.9959 2.40713 44.2877 2.13171C44.5795 1.85629 44.9331 1.71904 45.3503 1.71904C45.7666 1.71904 46.1211 1.85629 46.4128 2.13171C46.7047 2.40713 46.85 2.77798 46.85 3.24428C46.85 3.71058 46.7037 4.08143 46.4128 4.35684C46.1211 4.63226 45.7675 4.76951 45.3503 4.76951ZM44.2004 20.1176H46.5246V7.11943H44.2004V20.1176ZM53.8022 19.5162C54.8021 19.9161 55.9102 20.116 57.1263 20.116C57.8262 20.116 58.4762 20.0742 59.0761 19.9906C59.6676 19.9083 60.1852 19.8101 60.6304 19.696V34.4895C61.313 34.6559 62.0757 34.7686 62.9174 34.8267C63.7591 34.8849 64.5298 34.914 65.2297 34.914C66.6459 34.914 67.9457 34.7349 69.1292 34.3768C70.3127 34.0177 71.3289 33.476 72.1788 32.7515C73.0287 32.0262 73.6877 31.1099 74.154 30.002C74.6202 28.8939 74.8539 27.5896 74.8539 26.0898C74.8539 24.59 74.6202 23.2865 74.154 22.1776C73.6868 21.0696 73.0287 20.1525 72.1788 19.428C71.3289 18.7036 70.3127 18.1618 69.1292 17.8037C67.9457 17.4455 66.6459 17.2665 65.2297 17.2665C64.5298 17.2665 63.7591 17.2955 62.9174 17.3537C62.086 17.4111 61.3327 17.5219 60.6555 17.6849C60.5565 17.6979 60.4376 17.7195 60.2923 17.7536C59.5423 17.93 58.4679 17.99 57.3517 17.99C56.3855 17.99 55.5393 17.8236 54.8149 17.4901C54.0895 17.1565 53.4851 16.6856 53.0024 16.0775C52.5188 15.4695 52.157 14.7404 51.9152 13.8906C51.6735 13.0398 51.5525 12.099 51.5525 11.0655C51.5525 9.99928 51.6899 9.03672 51.9652 8.17865C52.2398 7.3206 52.6352 6.59161 53.1524 5.99169C53.6678 5.39268 54.2931 4.93457 55.0266 4.61734C55.7592 4.30102 56.5846 4.14285 57.5008 4.14285C57.9335 4.14285 58.3634 4.18013 58.788 4.25558C59.2133 4.3301 59.6042 4.42646 59.9633 4.5428C60.3214 4.65915 60.6423 4.77641 60.9259 4.89275C61.2094 5.01001 61.4257 5.11818 61.5757 5.21817L62.2756 3.21844C62.1757 3.15209 61.992 3.0521 61.7257 2.91848C61.4594 2.78486 61.1139 2.65216 60.6886 2.51855C60.2631 2.38493 59.7632 2.26857 59.1887 2.16859C58.6143 2.0686 57.968 2.01861 57.2518 2.01861C56.1183 2.01861 55.0521 2.21859 54.0523 2.61853C53.0524 3.01847 52.177 3.60202 51.4272 4.36829C50.6772 5.13454 50.0818 6.07986 49.6401 7.20516C49.1984 8.33046 48.9775 9.61757 48.9775 11.0673C48.9775 12.5171 49.173 13.8051 49.5647 14.9295C49.9564 16.0539 50.5109 17.0001 51.2272 17.7664C51.9434 18.5327 52.8024 19.1163 53.8022 19.5162ZM70.5799 31.0264C69.4464 32.2016 67.7304 32.7888 65.4307 32.7888C64.7471 32.7888 64.2181 32.7807 63.8436 32.7643C63.4691 32.7479 63.2064 32.7306 63.0564 32.7143V19.4662C63.2064 19.4498 63.4691 19.4325 63.8436 19.4161C64.2181 19.3989 64.7471 19.3907 65.4307 19.3907C67.7304 19.3907 69.4464 19.9779 70.5799 21.1532C71.7124 22.3276 72.2796 23.9738 72.2796 26.0898C72.2796 28.2059 71.7124 29.852 70.5799 31.0264ZM52.6026 34.6296C53.4779 34.4805 54.1815 34.3388 54.715 34.2051V21.5815H52.3908V32.5553C52.3071 32.589 52.1699 32.6172 51.9781 32.6426C51.7863 32.668 51.5745 32.6926 51.3409 32.718C51.1073 32.7435 50.8573 32.7644 50.591 32.7807C50.3237 32.7971 50.0657 32.8053 49.8156 32.8053C48.6322 32.8053 47.7914 32.4644 47.2915 31.7809C46.7915 31.0973 46.5416 29.9648 46.5416 28.3813V21.5823H44.2164V28.8813C44.2164 29.7649 44.3083 30.5683 44.4918 31.2936C44.6755 32.0181 44.9745 32.6471 45.3917 33.1807C45.808 33.7143 46.3579 34.1261 47.0415 34.4178C47.7242 34.7087 48.5658 34.855 49.5657 34.855C50.7155 34.855 51.7282 34.7795 52.6026 34.6296Z" fill="#00C3A5"/>
<path d="M34.8027 22.5312H34.7764C33.6434 22.5376 32.5757 22.9413 31.7701 23.6683C31.0692 24.3009 30.6361 25.1125 30.521 25.9919C28.7176 26.043 27.5117 27.844 27.5117 29.5285C27.5117 31.4056 29.0365 32.9445 30.9482 33.0405L30.9523 33.0407C31.0137 33.0437 31.0756 33.0453 31.1377 33.0453C31.1923 33.0453 31.2468 33.0437 31.3014 33.0407H31.7836V31.4554H30.9482C29.8967 31.3846 29.1084 30.5392 29.1084 29.5285C29.1084 29.0194 29.3088 28.4359 29.6382 28.0196C29.7025 27.9051 29.7915 27.8042 29.9022 27.725C29.9593 27.6687 30.021 27.6178 30.0954 27.5778C30.1824 27.5106 30.5998 27.327 30.7305 27.3097C30.7507 27.3051 30.7726 27.2981 30.7951 27.2909C30.835 27.2782 30.8773 27.2648 30.9173 27.2624C30.9826 27.2497 31.1514 27.2497 31.1604 27.2497C31.217 27.2371 31.3778 27.2654 31.4581 27.2796C31.4819 27.2838 31.4987 27.2867 31.5034 27.2869C31.5043 27.2866 31.5052 27.2862 31.5061 27.2856C31.5567 27.296 31.5992 27.3045 31.6272 27.3102C31.6397 27.3128 31.6499 27.3148 31.6557 27.3161C31.6657 27.3171 31.6761 27.3177 31.6864 27.3183C31.7035 27.3195 31.7208 27.3205 31.7365 27.3234C31.7528 27.3187 31.7682 27.3106 31.7819 27.2988C31.7864 27.2952 31.7945 27.1443 31.7945 27.1243C31.7945 27.057 31.8018 26.9907 31.8146 26.9261C31.8236 26.5416 32.318 25.4372 32.4432 25.2936C32.5557 25.1436 32.8306 24.8618 32.8378 24.8564C33.423 24.4374 34.0426 24.1347 34.8019 24.1311C36.0856 24.1311 37.1597 24.91 37.4327 25.9471C37.4663 26.0426 37.5769 26.5907 37.5652 26.737C37.5824 26.8361 37.597 27.0289 37.5842 27.1433C37.6189 27.1832 37.6697 27.1515 37.7077 27.1278C37.7138 27.124 37.7194 27.1205 37.7247 27.1175C37.728 27.1155 37.731 27.1139 37.7339 27.1124C37.7642 27.0983 37.7923 27.0853 37.8186 27.0729C38.0603 26.9597 38.1557 26.915 38.5882 26.8427C38.6823 26.8296 38.7829 26.8203 38.8996 26.8179H38.9368C40.1098 26.8179 41.0642 27.865 41.0642 29.1513C41.0642 30.291 40.2963 31.2429 39.2858 31.445L33.2806 31.4673L33.2868 33.0552L38.0535 33.0705C38.3252 33.0816 38.604 33.0834 38.8851 33.0834C40.9671 33.0834 42.6608 31.3191 42.6608 29.1504C42.6608 26.9816 40.9907 25.2181 38.9368 25.2181L38.8847 25.2188C38.3128 23.6593 36.6961 22.5312 34.8027 22.5312Z" fill="#627282"/>
</g>
<defs>
<clipPath id="clip0_1195_19309">
<rect width="75" height="35" fill="white"/>
</clipPath>
</defs>
</svg>
