<svg width="1276" height="160" viewBox="0 0 1276 160" fill="none" xmlns="http://www.w3.org/2000/svg">
<g clip-path="url(#clip0_2662_105)">
<path d="M1197.19 0C1244.07 0 1275.54 36.7548 1275.54 79.4495C1275.54 122.145 1243.63 159.337 1196.75 159.337C1149.87 159.337 1118.4 122.588 1118.4 79.8889C1118.4 37.1949 1150.31 0 1197.19 0ZM1035.87 2.64553C1070.64 2.64553 1093.53 21.1257 1093.53 51.7204C1093.53 85.1703 1065.81 102.334 1033.02 102.334H995.603V156.696H978.217V2.64553H1035.87ZM607.171 2.64312V18.7067H555.447V156.695H537.841V18.7067H486.125V2.64312H607.171ZM751.097 2.64553V18.485H657.125V71.0865H741.191V86.9364H657.125V140.854H752.198V156.695H639.736V2.64553H751.097ZM804.792 2.64553L860.916 86.7139L917.038 2.64553H934.643V156.695H917.251V31.9159L861.132 114.441H860.255L804.136 32.1335V156.695H787.189V2.64553H804.792ZM1255.01 72.3972H1194.5V87.4143H1255.01V72.3972ZM1034.56 18.7099H995.603V86.4923H1033.67C1059.2 86.4923 1075.93 72.847 1075.93 52.3846C1075.93 30.1522 1059.43 18.7099 1034.56 18.7099Z" fill="#818E9B"/>
<path d="M392.617 0C439.486 0 470.962 36.7548 470.962 79.4495C470.962 122.145 439.056 159.337 392.178 159.337C345.299 159.337 313.829 122.588 313.829 79.8889C313.829 37.1949 345.74 0 392.617 0ZM168.578 2.63991V91.1111C168.578 124.346 186.19 143.056 215.673 143.056C244.069 143.056 262.115 125.885 262.115 92.217V2.63991H279.5V90.8902C279.5 135.79 253.752 159.119 215.238 159.119C177.162 159.119 151.194 135.79 151.194 92.217V2.63991H168.578ZM121.046 2.64312V18.7067H69.3228V156.695H51.7164V18.7067H0V2.64312H121.046ZM400.739 20.7009H385.723V81.2108H400.739V20.7009Z" fill="#00C3A5"/>
</g>
<defs>
<clipPath id="clip0_2662_105">
<rect width="1275.82" height="160" fill="white"/>
</clipPath>
</defs>
</svg>
