<svg width="288" height="63" viewBox="0 0 288 63" fill="none" xmlns="http://www.w3.org/2000/svg">
<path d="M206.311 32.8589H187.751L184.801 47.8889H205.741L204.631 50.7389H181.161L188.491 13.1889H211.911L210.751 16.0389H191.031L188.291 30.0189H207.431L206.321 32.8689L206.311 32.8589Z" fill="#4C94F7"/>
<path d="M243.431 32.4289C242.761 35.9789 241.861 38.9289 240.711 41.2589C239.571 43.5989 238.171 45.4689 236.521 46.8789C234.871 48.2889 232.941 49.2789 230.751 49.8589C228.551 50.4389 226.081 50.7289 223.341 50.7289H212.161L219.491 13.1789H230.141C235.031 13.1789 238.591 14.1889 240.821 16.2089C243.051 18.2289 244.171 21.3689 244.171 25.6189C244.171 26.6389 244.111 27.7089 243.991 28.8389C243.871 29.9689 243.681 31.1589 243.441 32.4289H243.431ZM222.021 16.0289L215.801 47.8789H223.711C226.141 47.8789 228.251 47.6289 230.071 47.1189C231.881 46.6089 233.441 45.7589 234.741 44.5589C236.041 43.3689 237.121 41.7589 237.981 39.7589C238.841 37.7589 239.571 35.2789 240.171 32.3189C240.701 29.7489 240.961 27.5189 240.961 25.6189C240.961 22.0989 240.071 19.6289 238.301 18.1789C236.521 16.7389 233.761 16.0189 229.991 16.0189H222.031L222.021 16.0289Z" fill="#4C94F7"/>
<path d="M265.001 39.2889L256.671 17.8289L250.291 50.7389H247.281L254.611 13.1889H257.881L266.741 36.2389L284.621 13.1889H287.841L280.511 50.7389H277.501L283.781 18.3589L267.541 39.2989H265.011L265.001 39.2889Z" fill="#4C94F7"/>
<path d="M123.741 24.9689L120.861 39.9389C120.611 41.2689 120.311 42.3589 119.941 43.2089C119.571 44.0689 119.091 44.7389 118.501 45.2289C117.911 45.7189 117.161 46.0589 116.281 46.2489C115.391 46.4389 114.321 46.5389 113.061 46.5389C111.391 46.5389 110.121 46.2289 109.261 45.5989C108.401 44.9689 107.981 43.8689 107.981 42.2989C107.981 41.7389 108.071 40.9689 108.241 39.9989L109.081 35.4589L113.521 13.2789H107.811L92.0507 35.0089L84.5107 13.2789H78.6507L71.4207 50.5589H76.8107L82.4107 21.7589L88.7507 39.9289H93.7807L106.351 22.4989L104.661 31.0589L102.851 39.9989C102.741 40.5189 102.671 41.0589 102.611 41.5989C102.561 42.1389 102.531 42.5689 102.531 42.8789C102.531 45.5989 103.391 47.6489 105.121 49.0289C106.851 50.4089 109.251 51.0989 112.321 51.0989C115.391 51.0989 117.591 50.3689 119.131 48.8989L118.921 49.7889C118.331 52.3689 117.431 54.1789 116.221 55.2089C115.021 56.2389 113.241 56.7489 110.911 56.7489C109.411 56.7489 108.001 56.7289 106.671 56.6989C105.341 56.6589 104.051 56.6089 102.801 56.5389L101.021 61.1989C101.961 61.2289 102.821 61.2589 103.591 61.2789C104.361 61.2989 105.121 61.3089 105.871 61.3089H110.921C112.941 61.3089 114.721 61.0789 116.231 60.6289C117.751 60.1789 119.051 59.4689 120.131 58.5089C121.211 57.5489 122.091 56.3089 122.771 54.7889C123.451 53.2689 124.001 51.4489 124.421 49.3189L129.131 24.9689H123.741V24.9689Z" fill="#294460"/>
<path d="M161.771 32.2389C161.111 35.8689 160.161 38.8589 158.941 41.2189C157.721 43.5789 156.231 45.4289 154.491 46.7989C152.741 48.1589 150.761 49.0989 148.551 49.6289C146.331 50.1489 143.901 50.4189 141.251 50.4189H129.001L136.281 13.1389H147.121C152.181 13.1389 155.991 14.1589 158.561 16.1989C161.131 18.2389 162.411 21.5489 162.411 26.1189C162.411 27.9689 162.201 30.0089 161.781 32.2489L161.771 32.2389ZM140.781 18.0489L135.441 45.4789H141.831C143.781 45.4789 145.531 45.3289 147.071 45.0289C148.601 44.7289 149.951 44.0989 151.101 43.1189C152.251 42.1389 153.241 40.7589 154.061 38.9789C154.881 37.1989 155.571 34.8089 156.131 31.8089C156.551 29.5789 156.761 27.6589 156.761 26.0489C156.761 24.4389 156.551 23.0689 156.131 22.0189C155.711 20.9689 155.081 20.1489 154.251 19.5589C153.411 18.9689 152.381 18.5689 151.161 18.3589C149.941 18.1489 148.541 18.0489 146.971 18.0489H140.791H140.781Z" fill="#294460"/>
<path d="M175.931 27.7889C174.671 27.7889 173.631 27.8789 172.791 28.0489C171.951 28.2289 171.251 28.5689 170.671 29.0689C170.091 29.5789 169.631 30.2689 169.281 31.1389C168.931 32.0089 168.631 33.1289 168.391 34.4889L165.301 50.4089H159.911L163.051 34.0189C163.471 31.7489 164.051 29.9089 164.801 28.4989C165.551 27.0889 166.471 25.9889 167.551 25.1989C168.631 24.4089 169.911 23.8889 171.371 23.6289C172.841 23.3689 174.511 23.2389 176.401 23.2389C177.201 23.2389 177.881 23.2389 178.441 23.2689C179.001 23.2889 179.681 23.3289 180.481 23.3989L178.751 27.8989C178.191 27.8689 177.681 27.8389 177.231 27.8189C176.781 27.7989 176.341 27.7889 175.921 27.7889H175.931Z" fill="#294460"/>
<path d="M47.2808 2.66891C35.3308 -2.63109 21.2008 0.11891 12.1208 9.52891C11.8008 9.85891 11.8108 10.3889 12.1408 10.6989C12.4708 11.0189 13.0008 11.0089 13.3108 10.6789C21.9108 1.77891 35.3008 -0.82109 46.6108 4.18891C53.8408 7.39891 59.3908 13.2189 62.2308 20.5989C65.0808 27.9789 64.8808 36.0189 61.6708 43.2489C58.4608 50.4789 52.6408 56.0289 45.2608 58.8689C37.8808 61.7189 29.8308 61.5189 22.6108 58.3089C11.4208 53.3589 4.4108 41.8989 5.0408 29.7089C6.1908 29.5589 7.2308 28.9889 7.9608 28.0789C8.7108 27.1489 9.0508 25.9789 8.9308 24.7889C8.8008 23.5989 8.2208 22.5289 7.2908 21.7789C6.3608 21.0189 5.1908 20.6889 4.0008 20.8089C2.8108 20.9389 1.7408 21.5189 0.990797 22.4489C-0.559203 24.3689 -0.259203 27.1989 1.6708 28.7489C1.7208 28.7889 1.7808 28.8389 1.8308 28.8789C2.3008 29.2289 2.8408 29.4689 3.3908 29.6089C2.7208 42.4889 10.1308 54.5889 21.9408 59.8289C22.3808 60.0289 22.8308 60.2089 23.2808 60.3889C30.5608 63.2289 38.5208 63.2489 45.8608 60.4189C53.6508 57.4089 59.8108 51.5589 63.1908 43.9189C70.1808 28.1589 63.0408 9.64891 47.2808 2.66891V2.66891ZM1.6608 25.5689C1.5808 24.8189 1.8008 24.0789 2.2708 23.4989C2.7408 22.9089 3.4208 22.5489 4.1708 22.4589C4.8808 22.3789 5.5708 22.5689 6.1408 22.9889C6.1708 23.0189 6.2108 23.0389 6.2408 23.0689C6.8308 23.5389 7.1908 24.2189 7.2808 24.9689C7.3608 25.7189 7.1408 26.4589 6.6708 27.0389C6.2008 27.6289 5.5208 27.9889 4.7708 28.0789C4.0208 28.1689 3.2908 27.9389 2.7008 27.4689C2.1108 26.9989 1.7508 26.3189 1.6608 25.5689V25.5689Z" fill="#4C94F7"/>
<path d="M44.7909 36.1589C42.5409 36.2389 40.7709 38.1289 40.8509 40.3789C40.9209 42.3289 42.3509 43.9189 44.1909 44.2489C44.1809 44.3189 44.1709 44.3789 44.1709 44.4489L44.4409 47.6189C44.5509 50.8589 42.0109 53.5789 38.7709 53.6889C35.5309 53.7989 32.8109 51.2589 32.7009 48.0189L32.7309 38.3889C33.8909 38.2289 34.9609 37.6989 35.8109 36.8589L45.4509 27.2689C47.2309 25.4889 48.2109 23.1289 48.2109 20.6089C48.2109 18.0889 47.2309 15.7289 45.4509 13.9489C43.4209 11.9189 40.6309 10.9789 37.8809 11.2489C37.5709 10.7789 36.9809 10.5489 36.4209 10.7189L33.6309 11.5789C32.9509 11.7889 32.5709 12.5189 32.7809 13.1989L33.1309 14.3389C33.3409 15.0189 34.0709 15.3989 34.7509 15.1889L37.5409 14.3289C38.0909 14.1589 38.4409 13.6489 38.4409 13.0989C40.5109 12.9989 42.5809 13.7589 44.1109 15.2889C45.5309 16.7089 46.3109 18.5989 46.3109 20.6089C46.3109 22.6189 45.5309 24.5089 44.1109 25.9289L34.4709 35.5189C33.8009 36.1889 32.9009 36.5589 31.9309 36.5589H31.8309C30.8709 36.5589 29.9809 36.1889 29.3109 35.5289L19.7909 25.9289C18.3709 24.5089 17.5909 22.6189 17.5909 20.6089C17.5909 18.5989 18.3709 16.7089 19.7909 15.2889C21.1909 13.8889 23.0509 13.1289 24.9509 13.0889C24.9509 13.6389 25.3009 14.1589 25.8509 14.3289L28.6409 15.1889C29.3209 15.3989 30.0509 15.0189 30.2609 14.3389L30.6109 13.1989C30.8209 12.5189 30.4409 11.7889 29.7609 11.5789L26.9709 10.7189C26.4209 10.5489 25.8509 10.7689 25.5409 11.2089C22.9509 11.0889 20.3609 12.0389 18.4509 13.9489C16.6709 15.7289 15.6909 18.0889 15.6909 20.6089C15.6909 23.1289 16.6709 25.4889 18.4509 27.2589L27.9709 36.8589C28.7409 37.6289 29.7109 38.1389 30.7509 38.3489L30.8409 48.0889C30.9809 52.3489 34.5609 55.6889 38.8209 55.5489C43.0809 55.4089 46.4209 51.8289 46.2809 47.5689L46.0109 44.3989C46.0109 44.3289 45.9909 44.2489 45.9709 44.1789C47.7609 43.6989 49.0509 42.0289 48.9909 40.0989C48.9109 37.8489 47.0209 36.0789 44.7709 36.1589H44.7909ZM45.0009 42.4689C43.7709 42.5089 42.7409 41.5489 42.6909 40.3189C42.6509 39.0889 43.6109 38.0589 44.8409 38.0189C46.0709 37.9789 47.1009 38.9389 47.1509 40.1689C47.1909 41.3989 46.2309 42.4289 45.0009 42.4789V42.4689Z" fill="#4C94F7"/>
<path d="M44.9209 41.4089C45.5837 41.4089 46.1209 40.8717 46.1209 40.2089C46.1209 39.5462 45.5837 39.0089 44.9209 39.0089C44.2582 39.0089 43.7209 39.5462 43.7209 40.2089C43.7209 40.8717 44.2582 41.4089 44.9209 41.4089Z" fill="#4C94F7"/>
</svg>
